<svg xmlns="http://www.w3.org/2000/svg" viewBox="0 0 799.26 758.58">
                    <path class="cls-1" d="M621.78,531.7V477.15L481.24,579.24,348.49,591.39a5.78,5.78,0,0,1-5.86-8l51.82-123.65,224.46-163V73.32C619.32,33.59,587.37.82,547.64,0H71.27A72.56,72.56,0,0,0,0,73.32V685.67a72.72,72.72,0,0,0,72.91,72.91h476a72.81,72.81,0,0,0,72.91-72.91V546.84l.22-.14Zm-505-409.23h396.9c16.39,0,29.49,9.42,29.49,21.71s-13.1,21.71-29.49,21.71H116.74c-16,0-29.49-9.42-29.49-21.71C87.25,132.3,100.77,122.47,116.74,122.47Zm0,132.71h396.9c16.39,0,29.49,9.42,29.49,21.71S530,298.6,513.64,298.6H116.74c-16,0-29.49-9.83-29.49-21.71S100.77,255.18,116.74,255.18Zm109,294.91a22.86,22.86,0,0,1,15.15,6.15A21,21,0,0,1,247,571.39a22.9,22.9,0,0,1-6.14,15.16,21,21,0,0,1-15.15,6.14H189.24v5.74h34.41a22.85,22.85,0,0,1,15.15,6.14A21,21,0,0,1,245,619.73a22.84,22.84,0,0,1-6.15,15.15A21,21,0,0,1,223.65,641H188v18.85A22.88,22.88,0,0,1,181.87,675a21,21,0,0,1-15.16,6.14A22.87,22.87,0,0,1,151.55,675a21,21,0,0,1-6.14-15.15V641h-36a22.85,22.85,0,0,1-15.16-6.14,21,21,0,0,1-6.14-15.15A22.41,22.41,0,0,1,109.78,598h36v-5.74h-36a22.9,22.9,0,0,1-15.16-6.14A21.06,21.06,0,0,1,88.48,571a22.42,22.42,0,0,1,21.71-21.71h8.6L95.85,521a22,22,0,1,1,35.22-26.21l38.51,46.69,39.32-47.1a21.41,21.41,0,0,1,30.31-2.87,21.44,21.44,0,0,1,2.87,30.31L217.5,550.09ZM308,432.95H116.74c-16,0-30.31-8.61-30.31-20.89,0-11.88,14.34-22.53,30.31-22.53H308c16.39,0,29.5,9.83,29.5,21.71S324.41,432.95,308,432.95Z"/><path class="cls-1" d="M782.45,320.57l-300.16,218a40.76,40.76,0,0,1-20.24,7.61l-66.58,6.1a.5.5,0,0,1-.51-.7l25.93-61.87a40.76,40.76,0,0,1,13.64-17.22l300-217.93a40.76,40.76,0,0,1,56.94,9h0A40.76,40.76,0,0,1,782.45,320.57Z"/>
</svg>