<svg xmlns="http://www.w3.org/2000/svg" viewBox="0 0 83.67 92.46">
<path class="cls-1" d="M34.88,91.84h-.45C15.41,91.85,0,84.14,0,74.63V64.94c0,9.51,15.41,15.43,34.43,15.43h.07v8.8A9.42,9.42,0,0,0,34.88,91.84Z"/>
<path class="cls-1" d="M34.5,63.15V74.63h-.07C15.41,74.63,0,66.92,0,57.41V47.72c0,9.51,15.41,15.43,34.43,15.43Z"/>
<path class="cls-1" d="M34.43,45.92q1,0,2,0a9.68,9.68,0,0,0-1.91,5.78v5.74h-.07C15.41,57.41,0,49.7,0,40.18V30.5C0,40,15.41,45.92,34.43,45.92Z"/>
<path class="cls-1" d="M68.85,30.5v9.68a8.71,8.71,0,0,1-.18,1.77H58.35C64.82,39.28,68.85,35.36,68.85,30.5Z"/>
<path class="cls-1" d="M34.43,40.18C15.41,40.18,0,32.47,0,23V17.22C0,7.71,15.41,0,34.43,0S68.85,7.71,68.85,17.22V23C68.85,32.47,53.44,40.18,34.43,40.18Z"/>
<path class="cls-1" d="M52.69,47.72H45.81a6.9,6.9,0,0,0-6.88,6.88v6.88a6.9,6.9,0,0,0,6.88,6.88h6.88a6.9,6.9,0,0,0,6.88-6.88V54.6A6.9,6.9,0,0,0,52.69,47.72Zm24.09,0H69.9A6.9,6.9,0,0,0,63,54.6v6.88a6.9,6.9,0,0,0,6.88,6.88h6.88a6.9,6.9,0,0,0,6.88-6.88V54.6A6.9,6.9,0,0,0,76.79,47.72ZM52.69,71.81H45.81a6.9,6.9,0,0,0-6.88,6.88v6.88a6.9,6.9,0,0,0,6.88,6.88h6.88a6.9,6.9,0,0,0,6.88-6.88V78.7A6.9,6.9,0,0,0,52.69,71.81Zm24.09,0H69.9A6.9,6.9,0,0,0,63,78.7v6.88a6.9,6.9,0,0,0,6.88,6.88h6.88a6.9,6.9,0,0,0,6.88-6.88V78.7A6.9,6.9,0,0,0,76.79,71.81Z"/>
</svg>