<svg xmlns="http://www.w3.org/2000/svg" viewBox="0 0 815.94 818.4">

        <path d="M540.32,296.69c4.33-.23,8.66-.64,13.07-.64a266.58,266.58,0,0,1,51.06,5.07c5.28-11.16,8.43-22.78,8.43-34.8,0-11.62-2.89-22.86-7.86-33.74-11,24-33.67,45.93-64.7,64.11ZM306.46,418.4c8.27,0,16.29-.33,24.38-.66A265.09,265.09,0,0,1,403.09,343a591.5,591.5,0,0,1-96.61,7.86c-145.82,0-267.61-50.59-298.62-118.26A80.7,80.7,0,0,0,0,266.38c0,83.93,137.16,152,306.48,152Zm0,0"/>
        <path d="M7.86,432.58A80.68,80.68,0,0,0,0,466.32C0,548.34,131.07,615,294.93,618a264.05,264.05,0,0,1-6.39-57.23c.06-3.43.39-6.83.54-10.26C151,546.64,37.61,497.59,7.86,432.58Zm0,0"/><path class="cls-1" d="M306.48,718.36c11.39,0,22.63-.39,33.67-1a263.14,263.14,0,0,1-35.34-66.51C159.68,650.47,38.72,600,7.86,532.62A80.62,80.62,0,0,0,0,566.36c0,83.95,137.18,152,306.48,152Zm0,0"/><path class="cls-1" d="M306.46,0C137.18,0,0,68.07,0,152S137.17,304,306.48,304h0c169.23,0,306.38-68.07,306.38-152S475.7,0,306.46,0Z"/><path class="cls-1" d="M306.48,450.85c-145.82,0-267.61-50.57-298.62-118.24A80.82,80.82,0,0,0,0,366.36C0,447.89,129.63,514.26,292.2,518a261.13,261.13,0,0,1,20.54-67.28C310.65,450.77,308.57,450.85,306.48,450.85Z"/><path class="cls-1" d="M638.81,536.26A66.14,66.14,0,1,1,574,483,66.12,66.12,0,0,1,638.81,536.26Z"/><path class="cls-1" d="M567.1,311.92c-137.49,0-248.84,111.43-248.84,248.84S429.69,809.59,567.1,809.59,815.94,698.15,815.94,560.76,704.51,311.92,567.1,311.92ZM687.18,664,574,780,460.82,664a166.55,166.55,0,0,1,0-231.55,157.41,157.41,0,0,1,226.36,0A166.55,166.55,0,0,1,687.18,664Z"/><path class="cls-1" d="M599.3,610.21a66.13,66.13,0,1,1,39.51-74A66.11,66.11,0,0,1,599.3,610.21Z"/>
        <path d="M366.77,747.87q-30.06,3-60.29,3c-145.82,0-267.61-50.59-298.62-118.23A80.58,80.58,0,0,0,0,666.42c0,83.93,137.16,152,306.48,152,49.85,0,96.84-6,138.52-16.5A263.15,263.15,0,0,1,366.77,747.87Z"/><path d="M599.3,610.21a66.13,66.13,0,1,1,39.51-74A66.11,66.11,0,0,1,599.3,610.21Z"/>
</svg>