
<svg version="1.1" id="图层_1" xmlns="http://www.w3.org/2000/svg" xmlns:xlink="http://www.w3.org/1999/xlink" x="0px" y="0px"
	 viewBox="0 0 128 81.7" style="enable-background:new 0 0 128 81.7;" xml:space="preserve">
<path class="st0" d="M64.6,81.7H5.1c-2-0.1-3.7-1.5-4.1-3.5c-1.1-2.2-1.3-4.7-0.6-7L17.9,7c1.2-4.1,4.1-7,7-7h21
	c2.9-0.3,5.6,1.9,5.8,4.9c0,0.1,0,0.3,0,0.4v0.6l17.5,65.9c0.7,2.3,0.5,4.8-0.6,7C68,80.5,66.4,81.6,64.6,81.7"/>
<path class="st0" d="M123.5,80.5H80.9c-2.1-0.3-3.8-2-4.1-4.1l-6.4-21c-0.6-1.9-0.6-3.9,0-5.8c1.2-1.8,2.3-2.9,4.1-2.9h36
	c4,0,7.6,2.4,9.2,6l7.9,18.4c0.6,2.1,0.6,4.3,0,6.4C126.4,79.3,125.2,80.5,123.5,80.5"/>
<path class="st0" d="M114.7,32c1.4,3.7-1.3,7.7-5.3,7.7H69.8c-1.8,0-3.5-1.8-4.7-4.7l-6.4-23.9c-0.6-2.5-0.6-5.1,0-7.6
	C59.9,1.2,61,0,62.8,0h37.3c1.8,0,2.9,1.8,4.1,4.1L114.7,32z"/>
</svg>
