<svg xmlns="http://www.w3.org/2000/svg" viewBox="0 0 118.78 122.82">
            <path class="cls-1" d="M106,98.75H12.8c-2.62,0-4.67-1.86-4.67-4s2-4,4.67-4H27.39a4.07,4.07,0,0,0,4.1-4,4,4,0,0,0-4.1-4H12.8c-7,0-12.8,5.31-12.8,12s5.82,12,12.8,12H106c2.62,0,4.67,1.86,4.67,4s-2,4-4.67,4H24.45a4.07,4.07,0,0,0-4.1,4,4,4,0,0,0,4.1,4H106c7,0,12.8-5.31,12.8-12S113,98.75,106,98.75Z"/>
            <path class="cls-1" d="M88.19,10.26a33.65,33.65,0,0,0-47.58-.8l-.8.8a35.6,35.6,0,0,0,0,49.5L64,84.53,88.19,59.76A35.6,35.6,0,0,0,88.19,10.26ZM64,45.56A13.48,13.48,0,1,1,77.47,32.08,13.48,13.48,0,0,1,64,45.56Z"/>
</svg>