<svg xmlns="http://www.w3.org/2000/svg" width="59" height="61" viewBox="0 0 59 61">
  <path d="M214,333h53a3,3,0,0,1,0,6H214A3,3,0,0,1,214,333Zm7-27a9,9,0,1,1-9,9A9,9,0,0,1,221,306Zm12.5-28a7.5,7.5,0,1,1-7.5,7.5A7.5,7.5,0,0,1,233.5,278ZM256,319a5,5,0,1,1-5,5A5,5,0,0,1,256,319Zm10-27a4,4,0,1,1-4,4A4,4,0,0,1,266,292Zm-48.8,27.113,16.013-35.93a1.96,1.96,0,0,1,2.621-1,2.045,2.045,0,0,1,.979,2.683L220.8,320.8a1.959,1.959,0,0,1-2.621,1A2.044,2.044,0,0,1,217.2,319.113ZM238.49,289.29l20.186,33.369a2,2,0,1,1-3.422,2.071l-20.186-33.37A2,2,0,0,1,238.49,289.29Zm17.281,32.584,8.247-25.71a2,2,0,0,1,3.809,1.222L259.58,323.1A2,2,0,0,1,255.771,321.874Z" transform="translate(-211 -278)"/>
</svg>
